<?xml version="1.0" encoding="UTF-8"?>
<svg id="Capa_1" data-name="Capa 1" xmlns="http://www.w3.org/2000/svg" viewBox="0 0 328.5 67.66">
  <defs>
    <style>
      .cls-1 {
        fill: #fff;
      }
    </style>
  </defs>
  <polygon class="cls-1" points="80.91 66.55 61.11 66.55 54.75 42.11 46.93 66.55 34.22 66.55 25.18 42.11 19.31 66.55 0 66.55 15.64 22.56 33.24 22.56 40.45 41.13 46.2 22.56 65.02 22.56 80.91 66.55"/>
  <path class="cls-1" d="m225.06,21.95v2.9c-3.37-2.33-7.37-3.7-11.68-3.7-11.95,0-21.64,10.41-21.64,23.25s9.69,23.26,21.64,23.26c4.3,0,8.31-1.37,11.68-3.7v2.78h16.71V21.95h-16.71Zm-7.74,34.63c-6.66,0-12.06-5.4-12.06-12.06s5.4-12.06,12.06-12.06,12.06,5.4,12.06,12.06-5.4,12.06-12.06,12.06"/>
  <polygon class="cls-1" points="276.12 0 276.12 66.91 293.52 66.91 293.52 49.32 306.14 66.91 328.5 66.91 305.95 42.25 326.4 22.37 306.33 22.37 293.14 35.89 293.14 0 276.12 0"/>
  <path class="cls-1" d="m220.35,44.53c0-1.67-1.35-3.03-3.02-3.03s-3.03,1.35-3.03,3.03,1.35,3.03,3.03,3.03,3.02-1.35,3.02-3.03"/>
  <path class="cls-1" d="m169.92,21.95v2.9c-3.37-2.33-7.37-3.7-11.68-3.7-11.95,0-21.64,10.41-21.64,23.25s9.69,23.26,21.64,23.26c4.3,0,8.31-1.37,11.68-3.7v2.78h16.71V21.95h-16.71Zm-7.74,34.63c-6.66,0-12.06-5.4-12.06-12.06s5.4-12.06,12.06-12.06,12.06,5.4,12.06,12.06-5.4,12.06-12.06,12.06"/>
  <path class="cls-1" d="m165.21,44.53c0-1.67-1.35-3.03-3.03-3.03s-3.03,1.35-3.03,3.03,1.35,3.03,3.03,3.03,3.03-1.35,3.03-3.03"/>
  <path class="cls-1" d="m113.71,21.95v2.9c-3.37-2.33-7.37-3.7-11.68-3.7-11.95,0-21.64,10.41-21.64,23.25s9.69,23.26,21.64,23.26c4.3,0,8.31-1.37,11.68-3.7v2.78h16.71V21.95h-16.71Zm-7.74,34.63c-6.66,0-12.06-5.4-12.06-12.06s5.4-12.06,12.06-12.06,12.06,5.4,12.06,12.06-5.4,12.06-12.06,12.06"/>
  <path class="cls-1" d="m109,44.53c0-1.67-1.35-3.03-3.03-3.03s-3.03,1.35-3.03,3.03,1.35,3.03,3.03,3.03,3.03-1.35,3.03-3.03"/>
  <rect class="cls-1" x="251.24" y="21.15" width="17.04" height="45.37"/>
  <path class="cls-1" d="m268.28,8.52c0-4.71-3.81-8.52-8.52-8.52s-8.52,3.81-8.52,8.52,3.82,8.52,8.52,8.52,8.52-3.82,8.52-8.52"/>
</svg>